<svg height="180" viewBox="1.55697612 16.85117299 124.71444777 178.86262701" width="126" xmlns="http://www.w3.org/2000/svg"><g fill="#aa6a64"><path d="m42.45 159.11q-.01-.01-.01-.02c-.87-1.91-25.38-79.21-19.73-90.17 2.33-4.53 9.63-6.11 14.05-7.21 8.69-2.16 17.76-2.98 26.7-3.25 9.43-.29 19.01.08 28.31 1.76 3.34.6 8.23 1.07 11.14 2.95 7.41 4.78 3.41 14.56 2.14 21.22-1.38 7.21-2.96 14.38-4.52 21.54q-3.29 15.16-6.69 30.29c-.93 4.15-2.22 8.16-3.25 12.22-.81 3.19-.39 6.99-2.95 9.48-2.48 2.41-6.31 2.6-9.56 2.46-6.78-.29-13.7.77-20.59.45-1.82-.09-14.26-.15-15.04-1.72z"/><path d="m77.97 31.5q-4.11-.51-8.22-1.02c-6.49-.8-13.29-1.57-19.41.75-.38.14-.77.31-1.02.62-.36.45-.35 1.07-.33 1.64q.3 8.5.6 17.01c.07 1.8.39 3.99 2.06 4.66.48.19 1.01.22 1.53.24q10.5.49 21.01.16c.7-.02 1.44-.06 2.02-.45.91-.62 1.1-1.85 1.19-2.93q.93-10.32.57-20.68z"/><path d="m66.04 17.01c2.84.41 5.6 1.68 7.54 3.8s2.97 5.11 2.45 7.93c-8.5-.9-17.22-1.79-25.51.31.07-3.7 2.03-7.28 5-9.5 2.97-2.21 6.86-3.08 10.52-2.54z"/><path d="m24.42 26.31q.49-.94 1.22-1.65c.82-.78 1.69-1.6 2.78-1.87.45-.11.91-.13 1.37-.14.69-.02 1.4-.02 2.05.23 1.56.59 2.81 1.61 3.52 3.11 1.63 3.45.32 6.66-3.35 7.9-2.62.88-5.96.57-7.52-1.71-1.18-1.73-1.02-4.04-.07-5.87z"/><path d="m30.34 30.46c1.71 1.55 2.93 3.81 4.13 5.75 1.26 2.05 2.32 4.18 3.41 6.32.46.92 1.06 1.79 1.91 2.4 1.01.71 3.12.48 4.3.55 2.23.14 5.04-.09 6.97 1.19.38.25.12.74-.28.68-2.9-.4-5.9-.14-8.81-.13-1.96.01-3.79-.32-5.1-1.89-1.48-1.77-2.31-4.16-3.45-6.15-1.44-2.53-3.49-4.81-4.79-7.39-.56-1.12.78-2.17 1.71-1.33z"/><path d="m101.12 25.39c-.3-.81-.76-1.51-1.35-1.94q-.79-.59-1.63-1.1c-.49-.29-1-.57-1.56-.66-.49-.08-.99-.02-1.47.1-3.05.73-5.89 3.81-5.84 6.97.03 2.1 2.02 3.65 4 4.31 2.62.88 5.96.57 7.52-1.71.98-1.42 1.06-4.03.33-5.97z"/><path d="m94.94 29.65c-1.7 1.54-2.92 3.81-4.12 5.75-1.26 2.05-2.33 4.18-3.42 6.32-.46.92-1.06 1.79-1.91 2.39-1 .72-3.12.48-4.3.56-2.22.14-5.04-.1-6.97 1.19-.37.24-.12.74.29.68 2.89-.4 5.89-.14 8.81-.13 1.96.01 3.79-.32 5.1-1.89 1.47-1.77 2.31-4.16 3.44-6.15 1.45-2.53 3.5-4.81 4.8-7.39.56-1.12-.78-2.17-1.72-1.33z"/><path d="m51.17 186.17q2.78-.23 5.56-.46 0-11.18 0-22.35-3.75 0-7.51 0 .22 11.44 1.95 22.81z"/><path d="m74.36 186.17q2.78-.23 5.56-.46 0-11.18 0-22.35-3.75 0-7.51 0 .22 11.44 1.95 22.81z"/><path d="m51.18 186.17-4 8.18h14.36l-4.54-8.18z"/><path d="m74.89 186.17-4 8.18h14.36l-4.54-8.18z"/></g><path d="m45.61 195.71q8.33-.21 16.67-.43 0-.74.01-1.48c-5.58-.52-11.23-.4-16.78.38q.05.77.1 1.53z" fill="#4c484a"/><path d="m69.78 195.71q8.34-.21 16.67-.43.01-.74.01-1.48c-5.58-.52-11.22-.4-16.77.38q.05.77.09 1.53z" fill="#4c484a"/><path d="m21.63 95.24c.22-.09.45-.22.55-.43.08-.18.07-.38.05-.57q-1.07-12.04-2.76-24.01c-2.96-.5-6.01 1.03-7.91 3.36-1.89 2.33-2.77 5.33-3.14 8.31-.18 1.52-.25 3.08.13 4.56.39 1.54 1.24 2.92 2.2 4.19 1.28 1.7 2.81 3.26 4.72 4.22 1.9.96 4.22 1.23 6.16.37z" fill="#4c484a"/><path d="m11.4 95.71c-1.41-1.72-3.5-3.02-5.52-3.94-7.1 14.79-5.34 33.45 4.41 46.65 1.59-.64 4.62-1.08 4.7-2.98.05-1.09-2.44-3.9-2.99-4.98-1.79-3.5-3.03-7.27-3.72-11.14-1.31-7.38-1-17.07 3.12-23.61z" fill="#aa6a64"/><path d="m10.35 144.73c.01 1.1.69 2.06 1.38 2.92q3.16 3.96 7 7.27 1.8-1.36 3.81-2.36-3.02-3.34-6.05-6.69c.71-.67 1.65-1.4 2.55-1.03.4.15.68.49.96.82q1.19 1.44 2.38 2.88c.12.14.24.29.41.33.22.05.43-.06.62-.16q.61-.35 1.22-.69c.17-.1.35-.2.45-.37.24-.41-.12-.91-.44-1.26-1.51-1.69-2.61-3.72-3.21-5.9-.1-.36-.19-.74-.42-1.04-.68-.9-2.05-.62-3.17-.68-.93-.05-1.82-.39-2.74-.51-.92-.13-1.97.02-2.56.74-.22.27-.35.59-.49.91q-.58 1.4-1.16 2.8c-.28.65-.55 1.32-.54 2.02z" fill="#4c484a"/><path d="m106.19 97.81c-.21-.1-.44-.22-.54-.44-.09-.17-.07-.38-.05-.57q1.07-12.04 2.76-24.01c2.96-.49 6.01 1.04 7.9 3.37 1.9 2.32 2.78 5.33 3.15 8.3.18 1.52.25 3.08-.13 4.57-.4 1.53-1.25 2.92-2.2 4.18-1.28 1.7-2.81 3.27-4.72 4.22-1.9.96-4.22 1.24-6.17.38z" fill="#4c484a"/><path d="m116.43 98.27c1.41-1.72 3.5-3.02 5.52-3.94 7.1 14.8 5.33 33.45-4.41 46.66-1.59-.65-4.62-1.09-4.7-2.98-.05-1.1 2.44-3.9 2.99-4.98 1.79-3.5 3.03-7.28 3.72-11.14 1.3-7.39 1-17.08-3.12-23.62z" fill="#aa6a64"/><path d="m117.48 147.3c-.01 1.09-.7 2.06-1.38 2.92q-3.16 3.96-7 7.27-1.8-1.36-3.81-2.36 3.02-3.35 6.04-6.69c-.7-.67-1.64-1.4-2.54-1.04-.4.16-.69.5-.96.82q-1.19 1.45-2.38 2.89c-.12.13-.24.28-.42.32-.21.06-.42-.05-.61-.16q-.61-.34-1.22-.69c-.17-.09-.35-.2-.45-.36-.24-.42.12-.91.44-1.27 1.5-1.68 2.61-3.72 3.21-5.89.1-.37.19-.75.42-1.05.68-.9 2.05-.62 3.17-.68.93-.05 1.82-.38 2.74-.51.92-.12 1.97.03 2.56.74.22.27.35.59.48.91q.59 1.4 1.17 2.8c.27.65.55 1.32.54 2.03z" fill="#4c484a"/><path d="m39.87 105.84c1.12 1.46 2.84 2.34 4.59 2.88 2.6.81 5.35.97 8.08 1.05 8.62.24 17.26-.27 25.79-1.55 3.22-.48 6.66-1.2 8.83-3.62 2.27-2.54 2.53-6.24 2.67-9.65q.23-5.55.45-11.11c.04-.82.06-1.7-.39-2.39-.34-.53-.92-.87-1.49-1.16-3.91-1.94-8.4-2.24-12.76-2.5-11.92-.72-24-1.42-35.69 1.01-.43.09-.9.2-1.21.51-.39.38-.47.97-.52 1.52q-.63 6.55-.66 13.13c-.01 3 .08 6.04.92 8.91.31 1.06.73 2.1 1.39 2.97z" fill="#6087a2"/><path d="m43.4 86.92c-.05-.49-.76-.51-.78 0-.19 5.12-.01 10.23.07 15.35.02 1.09 1.75 1.09 1.69 0-.27-5.12-.44-10.25-.98-15.35z" fill="#f9dd3a"/><path d="m48.82 91.64c-.03-2.89.03-5.83-.25-8.7-.04-.4-.58-.4-.62 0-.26 2.64-.19 5.32-.25 7.97-.05 2.89-.2 5.82-.05 8.7.04.79 1.18.79 1.22 0 .13-2.64-.02-5.32-.05-7.97z" fill="#f9dd3a"/><path d="m52.94 90.9q-.33 5.11-.61 10.23c-.03.57.87.57.89 0q.22-5.12.37-10.23c.02-.43-.63-.42-.65 0z" fill="#f9dd3a"/><path d="m58.83 93.55q-.06-4.36-.3-8.72c-.04-.56-.88-.57-.88 0q-.06 4.36-.2 8.72c-.08 2.88-.49 5.85-.37 8.71.04 1.12 1.56 1.06 1.69 0 .34-2.83.09-5.86.06-8.71z" fill="#f9dd3a"/><path d="m65.64 94.68c-.01-.76-1.14-.75-1.18 0-.14 2.32-.39 4.7-.31 7.01.03.96 1.4.94 1.47 0 .18-2.31.05-4.69.02-7.01z" fill="#f9dd3a"/><path d="m72.64 86.34c.01-.56-.82-.55-.86 0-.37 4.81-.54 9.8.06 14.59.12.92 1.54.97 1.48 0-.31-4.88-.73-9.69-.68-14.59z" fill="#f9dd3a"/><path d="m78.16 90.33c-.06-.46-.76-.49-.74 0 .08 2.73-.01 5.61.46 8.31.11.66 1.13.48 1.13-.15.04-2.69-.51-5.5-.85-8.16z" fill="#f9dd3a"/><path d="m83.76 86.16c-.04-.58-.86-.58-.89 0-.31 4.66-.55 9.54-.34 14.21.04 1.01 1.52 1.01 1.57 0 .2-4.67-.03-9.55-.34-14.21z" fill="#f9dd3a"/><path d="m82.36 103.43c-6.47.25-12.95.35-19.42.51-6.7.16-13.51 0-20.18.65-.51.04-.52.76 0 .79 6.44.44 12.98.1 19.43.07 6.72-.02 13.45-.11 20.17-.04 1.28.01 1.28-2.04 0-1.98z" fill="#f9dd3a"/><path d="m48.81 113.77c-6.78-8.78-13.76-17.45-19.76-26.79-2.92-4.55-5.64-9.23-7.95-14.12-.01 20.73 19.79 83.14 20.58 84.85q0 .01 0 .01c.79 1.58 13.23 1.64 15.05 1.72 6.89.33 13.8-.73 20.58-.44 3.26.13 7.09-.05 9.57-2.46 1.21-1.18 1.75-2.65 2.07-4.21-17.08-8.22-28.73-23.76-40.14-38.56z" fill="#272525" opacity=".08"/><path d="m51.47 41.49c-.88.95-.22 3.5-.22 4.6 0 .7-.24 1.46-.08 2.16.22 1.01.86.95 1.94 1.13 2.02.34 4.09.32 6.13.3q4.05-.04 8.1-.06c1.18 0 2.32.08 3.51.01 1.28-.08 2.63-.48 3.9-.48 1.83-.35 1.8-1.41 1.92-3.02.11-1.65.27-3.32.03-4.97q-8.39.09-16.77.1-2.01.01-4.02.01c-.98 0-3.31-.45-4.16 0q-.16.09-.28.22z" fill="#4c484a"/><path d="m57.86 43.79q-.17.72-.1 1.45c3.4-.24 6.84-.47 10.19.14q.01-.74.01-1.48.01-.11-.05-.19-.07-.04-.15-.04-4.96-.33-9.9.12z" fill="#f1f1f2"/><path d="m53.59 31.16c-1.18-.13-2.41-.26-3.53.14q.17 1.38.34 2.75 1.49 0 2.99 0 .1-1.44.2-2.89z" fill="#6087a2"/><path d="m61.27 30.29c-1.18-.14-2.41-.26-3.53.14q.17 1.37.34 2.75 1.49 0 2.99 0 .1-1.45.2-2.89z" fill="#6087a2"/><path d="m69.25 31.16c-1.18-.13-2.42-.26-3.54.14q.17 1.38.35 2.75 1.49 0 2.98 0 .11-1.44.21-2.89z" fill="#6087a2"/><path d="m76.17 31.8c-1.19-.13-2.42-.26-3.54.14q.17 1.37.34 2.75 1.5 0 2.99 0 .1-1.45.21-2.89z" fill="#6087a2"/></svg>