<svg version="1.2" xmlns="http://www.w3.org/2000/svg" viewBox="54.000000000000014 592 165.77362388442123 189.00000000000023" width="166" height="190">
	<style>
		.s0 { fill: #2f3f47 } 
		.s1 { fill: #516770 } 
		.s2 { fill: #ffbe4a } 
		.s3 { fill: #6d9daf } 
		.s4 { fill: #e2eced } 
		.s5 { fill: #272525 } 
		.s6 { opacity: .08;fill: #272525 } 
		.s7 { fill: #4c484a } 
	</style>
	<g id="&lt;Group&gt;">
	</g>
	<g id="Layer 1">
	</g>
	<g id="&lt;Group&gt;">
		<g id="&lt;Group&gt;">
			<g id="&lt;Group&gt;">
				<path id="&lt;Path&gt;" class="s0" d="m133.81 762.77q-0.05-0.68-0.11-1.37c3.87-2.64 10.67-1.78 14.79-0.44 4.4 1.42 4.41 4.15 4.35 8.71-0.03 2.59-0.28 5.5-2.25 7.17-1.53 1.29-3.68 1.46-5.67 1.58q-2.68 0.16-5.35 0.31c-1.25 0.08-2.63 0.11-3.57-0.71-0.96-0.82-1.13-2.21-1.23-3.47q-0.48-5.89-0.96-11.78z"/>
				<path id="&lt;Path&gt;" class="s0" d="m129.09 762.77q0.05-0.68 0.11-1.37c-3.87-2.64-10.67-1.78-14.79-0.44-4.41 1.42-4.41 4.15-4.35 8.71 0.03 2.59 0.28 5.5 2.25 7.17 1.53 1.29 3.68 1.46 5.67 1.58q2.68 0.16 5.35 0.31c1.24 0.08 2.63 0.11 3.57-0.71 0.96-0.82 1.13-2.21 1.23-3.47q0.48-5.89 0.96-11.78z"/>
				<path id="&lt;Path&gt;" class="s1" d="m162.15 752.96q1.46 0.32 2.81 0.87c0.67 0.27 1.34 0.61 1.82 1.16 0.66 0.77 0.83 1.83 0.93 2.84q0.21 2.02 0.19 4.05c-0.01 1.13-0.09 2.32-0.69 3.29-0.82 1.35-2.44 1.98-3.97 2.36-2.91 0.73-5.93 0.92-8.93 1.06-18.11 0.88-36.29 0.3-54.31-1.73-0.75-0.09-1.56-0.2-2.07-0.76-0.3-0.32-0.45-0.75-0.58-1.16-0.93-2.99-1.55-7.09 0.46-9.86 1.74-2.39 4.92-1.03 7.35-1.06 2.48-0.03 4.96-0.23 7.44-0.34q7.22-0.31 14.45-0.57 10.18-0.36 20.37-0.62c4.6-0.12 10.02-0.59 14.73 0.47z"/>
				<path id="&lt;Path&gt;" class="s2" d="m123.24 688.5c-12.29 0.05-24.58 0.33-36.87 0.58 0.29-6.55 0.77-13.1 2.16-19.5 2.44-11.21 8.03-22.18 17.45-28.72 14.46-10.04 37.36-8.73 52.93 1.21 6.55 4.18 11.79 9.88 14.57 16.91 3.17 8.03 4.01 16.75 4.53 25.36q0.11 1.71 0.19 3.41c-18.29-0.7-36.68 0.68-54.96 0.75z"/>
				<path id="&lt;Path&gt;" class="s3" d="m124.23 691.79c18.02-0.03 36.11-1.33 54.13-0.69 0.89 19.57 0.07 39.2-2.47 58.64-0.35 2.66-0.79 5.46-2.55 7.57-2.73 3.26-7.47 1.82-11.14 1.82-6.2 0.01-12.58 0.27-18.81 0.41-11.81 0.26-23.52 0.29-35.26-1.02-5.57-0.62-16.84 1.07-19.53-3.92-2.19-4.09-1.29-12.35-1.62-16.93q-0.59-8.08-0.86-16.18-0.47-14.58 0.11-29.16c12.67-0.25 25.33-0.52 38-0.54z"/>
				<g id="&lt;Group&gt;">
					<path id="&lt;Path&gt;" class="s0" d="m81.67 723.44c-0.23-0.22-0.26-0.56-0.29-0.86q-0.92-12.19-1.53-24.4c-0.04-0.71-0.03-1.54 0.52-1.99 0.4-0.32 0.95-0.34 1.47-0.35q2.71-0.03 5.42-0.07c1.14 9.24 1.6 18.56 1.37 27.87q-3.01 0.02-6.03 0.04c-0.33 0-0.7-0.01-0.93-0.24z"/>
					<g id="&lt;Group&gt;">
						<path id="&lt;Path&gt;" class="s0" d="m72.29 742.16c-0.24-0.67-0.5-1.37-1.02-1.86-0.42-0.39-0.97-0.61-1.51-0.8q-3.42-1.23-7.01-1.86c-1.85 1.26-3.52 2.78-4.95 4.5-0.27 0.32-0.54 0.67-0.6 1.09-0.05 0.32 0.03 0.65 0.11 0.96q1.4 5.42 2.8 10.84 2.06 0.28 4.12 0.04-0.78-3.29-1.56-6.59c-0.5-2.09-0.87-4.64 0.71-6.1q2.41 0.63 4.82 1.26c0.27 0.07 0.56 0.15 0.78 0.34 0.27 0.23 0.4 0.58 0.5 0.91q1 3.11 1.54 6.33 1.53-0.42 3.07-0.85c0.08-2.81-0.87-5.55-1.8-8.21z"/>
						<path id="&lt;Path&gt;" class="s1" d="m59.82 739c-0.08-0.08-0.11-0.2-0.14-0.31q-0.44-1.98-0.89-3.95 3.1-0.71 6.26-0.98 0.5 1.65 0.63 3.37c0.01 0.25 0.01 0.52-0.16 0.7-0.1 0.11-0.26 0.16-0.41 0.21q-2.36 0.71-4.8 1.04c-0.17 0.02-0.36 0.03-0.49-0.08z"/>
					</g>
					<g id="&lt;Group&gt;">
						<path id="&lt;Path&gt;" class="s4" d="m57.76 733.86c-1.24-2.07-0.24-7.56-0.23-9.78 0.02-3.02 0.04-6.08 0.74-9.02 0.69-2.94 2.13-5.8 4.51-7.66 1.35-1.05 2.95-1.74 4.57-2.3 4.89-1.68 10.16-2.24 15.3-1.63 0.4 0.05 0.84 0.12 1.14 0.41 0.31 0.3 0.39 0.77 0.45 1.2 0.22 1.69 0.56 3.53 0.48 5.23-0.14 2.98 0.48 2.16-1.71 3.03-1.66 0.66-4.81 0.13-6.73 0.55-2.23 0.49-4.41 1.27-6.57 2.03-1.36 0.48-2.84 1.05-3.55 2.31-0.39 0.69-0.5 1.5-0.59 2.29q-0.79 7.06-0.72 14.16c0 0.81-6.04 0.4-6.86-0.5q-0.12-0.14-0.23-0.32z"/>
						<g id="&lt;Group&gt;" style="opacity: .15">
							<path id="&lt;Path&gt;" class="s5" d="m68.03 706.49c0.18 2.82 0.92 5.37 2.03 7.96 0.22 0.5-0.42 0.89-0.74 0.43-1.75-2.47-2.68-5.4-2.99-8.39-0.11-1.08 1.63-1.1 1.7 0z"/>
							<path id="&lt;Path&gt;" class="s5" d="m63.54 708.49c0.51 2.74 1.72 4.52 3.67 6.46 0.26 0.26-0.08 0.71-0.4 0.51-1.3-0.82-2.55-1.36-3.49-2.66-0.88-1.22-1.47-2.55-1.63-4.06-0.11-1.05 1.65-1.28 1.85-0.25z"/>
						</g>
					</g>
				</g>
				<path id="&lt;Path&gt;" class="s0" d="m181.23 696.01c0.23 0.22 0.26 0.56 0.29 0.86q0.92 12.19 1.53 24.4c0.04 0.71 0.03 1.54-0.52 1.99-0.4 0.32-0.95 0.34-1.47 0.35q-2.71 0.03-5.42 0.07c-1.14-9.24-1.6-18.56-1.38-27.87q3.02-0.02 6.04-0.04c0.33 0 0.7 0.01 0.93 0.24z"/>
				<g id="&lt;Group&gt;">
					<g id="&lt;Group&gt;">
						<path id="&lt;Path&gt;" class="s0" d="m203.15 729.94c-0.09-0.71-0.17-1.45 0.08-2.12 0.2-0.54 0.6-0.98 0.99-1.39q2.53-2.62 5.46-4.78c2.21 0.3 4.39 0.92 6.43 1.83 0.39 0.17 0.78 0.36 1.02 0.71 0.19 0.26 0.26 0.59 0.33 0.91q1.16 5.48 2.31 10.95-1.72 1.17-3.67 1.87-0.77-3.3-1.53-6.6c-0.48-2.09-1.28-4.54-3.35-5.15q-1.87 1.64-3.75 3.28c-0.22 0.18-0.44 0.38-0.56 0.65-0.14 0.32-0.09 0.69-0.04 1.04q0.48 3.23 1.44 6.35-1.57 0.3-3.13 0.61c-1.32-2.49-1.69-5.36-2.03-8.16z"/>
						<path id="&lt;Path&gt;" class="s1" d="m212.9 721.56c0.04-0.11 0.02-0.22-0.01-0.33q-0.48-1.97-0.95-3.94-3.09 0.74-6.05 1.91 0.29 1.7 0.94 3.29c0.09 0.23 0.22 0.48 0.45 0.56 0.14 0.06 0.3 0.03 0.46 0.01q2.43-0.42 4.76-1.21c0.16-0.05 0.35-0.13 0.4-0.29z"/>
					</g>
					<g id="&lt;Group&gt;">
						<path id="&lt;Path&gt;" class="s4" d="m212.47 716.05c0.19-2.4-3.15-6.88-4.15-8.87-1.36-2.7-2.73-5.42-4.66-7.75-1.93-2.33-4.49-4.25-7.45-4.86-1.68-0.34-3.42-0.25-5.11-0.03-5.13 0.67-10.1 2.51-14.43 5.35-0.34 0.22-0.71 0.48-0.85 0.87-0.14 0.41-0.01 0.86 0.13 1.27 0.55 1.61 1.07 3.41 1.9 4.9 1.45 2.61 0.53 2.15 2.88 1.95 1.78-0.14 4.36-2.01 6.27-2.49 2.22-0.55 4.51-0.83 6.78-1.1 1.44-0.18 3.02-0.33 4.22 0.49 0.66 0.44 1.11 1.12 1.54 1.79q3.84 5.97 6.94 12.36c0.36 0.73 5.59-2.32 5.92-3.5q0.05-0.18 0.07-0.38z"/>
						<g id="&lt;Group&gt;" style="opacity: .15">
							<path id="&lt;Path&gt;" class="s5" d="m191.1 696.09c1.09 2.61 1.57 5.22 1.72 8.04 0.03 0.54 0.77 0.61 0.86 0.05 0.47-2.99-0.01-6.03-1.06-8.85-0.37-1.01-1.94-0.26-1.52 0.76z"/>
							<path id="&lt;Path&gt;" class="s5" d="m196.02 695.89c0.75 2.67 0.47 4.81-0.42 7.41-0.12 0.35 0.38 0.6 0.58 0.29 0.8-1.32 1.68-2.36 1.95-3.94 0.24-1.48 0.18-2.94-0.35-4.36-0.37-0.99-2.05-0.41-1.76 0.6z"/>
						</g>
					</g>
				</g>
				<g id="&lt;Group&gt;">
					<path id="&lt;Path&gt;" class="s4" d="m169.97 669.3c-0.01 1.12-0.09 2.27-0.56 3.28-1.19 2.56-4.37 3.37-7.15 3.84-15.93 2.66-32.23 3.57-48.25 1.56-2.1-0.27-4.23-0.59-6.16-1.46-1.93-0.87-3.67-2.37-4.38-4.36-0.45-1.26-0.47-2.62-0.49-3.96q-0.02-2.04-0.05-4.09c-0.01-0.61-0.01-1.24 0.22-1.81 0.26-0.63 0.79-1.11 1.35-1.49 2.12-1.45 4.79-1.76 7.34-2.01 16.97-1.72 34.13-3.19 51.04-0.91 0.69 0.1 1.44 0.22 1.95 0.71 0.25 0.25 0.42 0.57 0.7 0.78 0.48 0.38 1.16 0.36 1.75 0.55 1.65 0.53 2.23 2.56 2.43 4.29q0.3 2.53 0.26 5.08z"/>
					<path id="&lt;Path&gt;" class="s0" d="m148.7 671.78c-0.56-1.02-0.65-2.23-0.53-3.39 0.07-0.7 0.22-1.43 0.68-1.97 0.93-1.13 2.65-0.99 4.09-1.26 1.27 0.53 2.32 1.56 2.86 2.82 0.33 0.75 0.48 1.58 0.37 2.4-0.21 1.66-1.58 3.1-3.22 3.41-1.65 0.31-3.45-0.54-4.25-2.01z"/>
					<path id="&lt;Path&gt;" class="s0" d="m120.77 671.78c-0.56-1.02-0.64-2.23-0.53-3.39 0.07-0.7 0.23-1.43 0.68-1.97 0.94-1.13 2.66-0.99 4.1-1.26 1.26 0.53 2.31 1.56 2.85 2.82 0.33 0.75 0.48 1.58 0.37 2.4-0.21 1.66-1.58 3.1-3.22 3.41-1.65 0.31-3.45-0.54-4.25-2.01z"/>
				</g>
			</g>
		</g>
		<path id="&lt;Path&gt;" class="s0" d="m136.85 634.42q-0.3-8.9-1.06-17.77c-0.36-4.2-6.77-4.6-6.73-0.18 0.07 6.24 0.33 12.5 0.16 18.73-0.11 3.92 5.45 4.46 6.62 1.53 0.63-0.54 1.04-1.31 1.01-2.31z"/>
		<path id="&lt;Path&gt;" class="s2" d="m138 599.41q-0.69-0.53-1.4-0.88-0.29-0.21-0.61-0.4c-2.87-1.68-6.55-0.95-8.86 1.34-2.04 2.03-2.99 5.16-2.01 7.86 0.45 1.64 1.5 3.09 3.11 3.69 1.49 0.9 3.26 1.33 5.05 1.16 2.8-0.26 5.53-1.48 6.94-4.05 1.66-3.01 0.34-6.7-2.22-8.72z"/>
	</g>
	<path id="&lt;Path&gt;" class="s6" d="m116.7 722.49c10.19 5.16 21.48 7.71 32.2 11.65 4.64 1.7 9.3 3.74 12.83 7.2 1.85 1.81 3.35 3.98 4.38 6.34 0.34 0.76 0.63 1.57 0.58 2.39-0.11 2.36-2.71 3.72-5.01 4.26-2.76 0.64-5.6 0.8-8.43 0.92-16.7 0.7-33.45 0.13-50.06-1.7-2.31-0.25-4.82-0.63-6.43-2.31-1.72-1.8-1.88-4.54-2.04-7.04-0.76-12.08-3.8-23.9-5.53-35.89-0.37-2.6 0.68-9.04 4.8-8.1 2.52 0.57 4.07 6.13 5.52 8.16 4.35 6.1 10.56 10.76 17.19 14.12z"/>
	<path id="Shape 2" fill-rule="evenodd" class="s7" d=""/>
</svg>