<?xml version="1.0" encoding="utf-8"?>
<!-- Generator: Adobe Illustrator 27.7.0, SVG Export Plug-In . SVG Version: 6.00 Build 0)  -->
<svg version="1.1" id="Layer_1" xmlns="http://www.w3.org/2000/svg" xmlns:xlink="http://www.w3.org/1999/xlink" x="0px" y="0px"
	 viewBox="0 0 329 87.6" style="enable-background:new 0 0 329 87.6;" xml:space="preserve">
<style type="text/css">
	.st0{fill:#FFFFFF;}
</style>
<g>
	<path d="M205.9,16.6l3.6-1.2c0.8,2.8,2.6,3.7,4.3,3.7c1.8,0,3.3-0.8,3.3-2.5c0-1.7-1.7-2.2-3.4-2.8l-1.8-0.5
		c-2-0.6-5.3-1.9-5.3-5.7c0-3.6,3.1-5.9,6.9-5.9c3.8,0,6.3,2.2,7,4.7L217,7.7c-0.6-1.6-1.8-2.6-3.5-2.6c-1.7,0-2.8,0.9-2.8,2.1
		c0,1.6,1.9,2.3,3.5,2.8l2.1,0.7c1.8,0.6,5,1.6,5,5.4c0,3.6-2.9,6.4-7.4,6.4C209.9,22.5,206.8,20.4,205.9,16.6z"/>
	<path d="M222.2,14.9c0-4.4,3-7.6,7.4-7.6c4.4,0,7.4,3.2,7.4,7.6c0,4.5-3,7.6-7.4,7.6C225.2,22.5,222.2,19.4,222.2,14.9z
		 M229.6,19.1c2.2,0,3.7-1.7,3.7-4.1c0-2.5-1.5-4.2-3.7-4.2c-2.2,0-3.7,1.7-3.7,4.2C225.9,17.4,227.4,19.1,229.6,19.1z"/>
	<path d="M236.9,7.7h3.9c1.2,3.3,2.2,6.5,3.4,10.1h0.1c1.2-3.6,2.2-6.8,3.4-10.1h3.8l-5,14.3H242L236.9,7.7z"/>
	<path d="M251.5,15c0-4.4,3-7.7,7.2-7.7c3.6,0,6.9,2.4,6.9,7.6v1h-10.5c0.3,2.2,1.9,3.3,3.8,3.3c1.5,0,2.7-0.8,3.4-2.3l3.4,1.4
		c-1,2.3-3.4,4.2-6.7,4.2C254.7,22.5,251.5,19.5,251.5,15z M262,13.5c-0.3-2.2-1.7-3.1-3.3-3.1c-1.9,0-3,1.3-3.4,3.1H262z"/>
	<path d="M267.6,7.7h3.5V10h0.1c0.7-1.4,2.1-2.6,4-2.6c0.4,0,0.9,0.1,1.4,0.3v4c-0.6-0.2-1.3-0.3-1.7-0.3c-3.3,0-3.7,3.1-3.7,5.2
		v5.6h-3.6V7.7z"/>
	<path d="M276.8,15c0-4.4,3-7.7,7.2-7.7c3.6,0,6.9,2.4,6.9,7.6v1h-10.5c0.3,2.2,1.9,3.3,3.8,3.3c1.5,0,2.7-0.8,3.4-2.3l3.4,1.4
		c-1,2.3-3.4,4.2-6.7,4.2C280,22.5,276.8,19.5,276.8,15z M287.3,13.5c-0.3-2.2-1.7-3.1-3.3-3.1c-1.9,0-3,1.3-3.4,3.1H287.3z"/>
	<path d="M294.7,1.1c1.3,0,2.2,1,2.2,2.2c0,1.3-1,2.3-2.2,2.3c-1.3,0-2.2-1-2.2-2.3C292.4,2.1,293.4,1.1,294.7,1.1z M292.9,7.7h3.6
		v14.3h-3.6V7.7z"/>
	<path d="M298.9,24l3.3-1.2c0.7,1.6,1.8,2.2,3.4,2.2c2.4,0,3.7-1.5,3.7-4.6v-0.7h-0.1c-1,1.6-2.6,2.1-4.2,2.1
		c-4.3,0-6.6-3.4-6.6-7.3c0-4.3,2.8-7.4,6.5-7.4c2.1,0,3.6,1,4.4,2.3h0.1V7.7h3.5v12.9c0,5.8-3.4,7.5-7.1,7.5
		C303.1,28.2,300.1,27.4,298.9,24z M305.7,18.6c2.1,0,3.6-1.8,3.6-3.9c0-2.2-1.5-3.9-3.6-3.9s-3.6,1.7-3.6,3.9
		C302.1,16.8,303.6,18.6,305.7,18.6z"/>
	<path d="M315,7.7h3.5v2.1h0.1c1.1-1.7,2.7-2.5,4.4-2.5c2.6,0,5,1.8,5,5.7v9.1h-3.6v-7.5c0-1.9-0.5-3.9-2.7-3.9
		c-1.7,0-3.2,1.2-3.2,3.9v7.4H315V7.7z"/>
	<path d="M207.3,31.4h4c3,4.4,5.9,8.7,8.9,13.3h0.1V31.4h3.8v20.1h-4c-3-4.3-5.9-8.5-8.9-13.1h-0.1v13.1h-3.8V31.4z"/>
	<path d="M225.5,44.4c0-4.4,3-7.7,7.2-7.7c3.6,0,6.9,2.4,6.9,7.6v1h-10.5c0.3,2.2,1.9,3.3,3.8,3.3c1.5,0,2.7-0.8,3.4-2.3l3.4,1.4
		c-1,2.3-3.4,4.2-6.7,4.2C228.7,51.9,225.5,48.9,225.5,44.4z M236,42.9c-0.3-2.2-1.7-3.1-3.3-3.1c-1.9,0-3,1.3-3.4,3.1H236z"/>
	<path d="M242.9,46.9v-6.5c-1,0-1.9,0-2.8,0v-3.3h2.8c0-1.3,0-2.7,0-4.1h3.6v4.1c1.3,0,2.6,0,3.9,0v3.3h-3.9c0,1.7,0,3.5,0,5.2
		c0,1.4,0,3,2,3c0.7,0,1.4-0.2,1.9-0.5v3.2c-0.7,0.4-1.7,0.5-2.7,0.5C242.9,51.9,242.9,48.4,242.9,46.9z"/>
	<path d="M251.5,37.1h4.1l2.9,9.7h0.1c1.1-3.2,2.1-6.5,3.2-9.7h3.2c1.1,3.2,2.1,6.5,3.2,9.7h0.1c1-3.2,2-6.5,3-9.7h4.1l-4.7,14.3
		h-4.4c-0.9-3-1.9-6-2.8-8.9h-0.1c-1,3-1.9,6-2.9,8.9h-4.2L251.5,37.1z"/>
	<path d="M275.4,44.3c0-4.4,3-7.6,7.4-7.6c4.4,0,7.4,3.2,7.4,7.6c0,4.5-3,7.6-7.4,7.6C278.5,51.9,275.4,48.8,275.4,44.3z
		 M282.8,48.5c2.2,0,3.7-1.7,3.7-4.1c0-2.5-1.5-4.2-3.7-4.2c-2.2,0-3.7,1.7-3.7,4.2C279.2,46.8,280.7,48.5,282.8,48.5z"/>
	<path d="M292.1,37.1h3.5v2.2h0.1c0.7-1.4,2.1-2.6,4-2.6c0.4,0,0.9,0.1,1.4,0.3v4c-0.6-0.2-1.3-0.3-1.7-0.3c-3.3,0-3.7,3.1-3.7,5.2
		v5.6h-3.6V37.1z"/>
	<path d="M302.6,30.9h3.6v11.7h0.1c1.6-1.9,3.2-3.7,4.8-5.5h4.3l-5.3,5.9c2,2.8,4,5.7,6,8.5h-4.2l-4.1-5.9c-0.5,0.6-1,1.1-1.5,1.7
		v4.2h-3.6V30.9z"/>
	<path d="M206.2,70.9c0-6.6,4.7-10.5,10.2-10.5c4.4,0,7.9,2.6,9.2,6.3l-3.5,1.4c-1-2.4-2.9-4.1-5.7-4.1c-3.4,0-6.2,2.6-6.2,7
		c0,5.1,3.7,6.7,6.5,6.7c2.8,0,5-1.6,5.5-4.1h-5.3v-3.1h9.1v10.4h-2.9c-0.1-1-0.1-2-0.2-3h-0.1c-1.4,2.2-3.6,3.5-6.7,3.5
		C210.3,81.3,206.2,77,206.2,70.9z"/>
	<path d="M228.5,66.6h3.5v2.2h0.1c0.7-1.4,2.1-2.6,4-2.6c0.4,0,0.9,0.1,1.4,0.3v4c-0.6-0.2-1.3-0.3-1.7-0.3c-3.3,0-3.7,3.1-3.7,5.2
		v5.6h-3.6V66.6z"/>
	<path d="M238.2,73.8c0-4.4,3-7.6,7.4-7.6c4.4,0,7.4,3.2,7.4,7.6c0,4.5-3,7.6-7.4,7.6C241.2,81.3,238.2,78.2,238.2,73.8z
		 M245.6,77.9c2.2,0,3.7-1.7,3.7-4.1c0-2.5-1.5-4.2-3.7-4.2c-2.2,0-3.7,1.7-3.7,4.2C241.9,76.2,243.4,77.9,245.6,77.9z"/>
	<path d="M254.7,75.6v-9h3.6v7.8c0,2.2,0.9,3.6,2.6,3.6c1.9,0,3-1.6,3-3.6v-7.7h3.6v9.9c0,2.4,0.2,3.3,0.5,4.5h-3.6
		c-0.2-0.8-0.3-1.3-0.3-1.7h-0.1c-0.8,1.3-2.1,2.2-4.2,2.2C256.7,81.3,254.7,79.4,254.7,75.6z"/>
	<path d="M270.2,66.6h3.5v2.1h0.1c1.3-1.8,2.8-2.5,4.6-2.5c3.9,0,6.2,3.4,6.2,7.5c0,4.8-3.1,7.7-6.5,7.7c-2.2,0-3.6-1.1-4.4-2.3v7.5
		h-3.6V66.6z M277.3,77.9c2.1,0,3.6-1.7,3.6-4.1c0-2.4-1.5-4.2-3.6-4.2c-2.1,0-3.6,1.7-3.6,4.2C273.7,76.2,275.2,77.9,277.3,77.9z"
		/>
</g>
<polygon points="194.5,54 180.1,38.9 154.4,38.9 168.9,54 "/>
<path d="M183.2,23.4c-4.2-2.7-9.1-4.2-14.3-4.2c-15.3,0-27.7,13-27.7,29c0,4.5,1,8.8,2.8,12.6c-9.5-4.9-16.1-15.3-16.1-27.4
	c0-16.8,12.7-30.4,28.4-30.4C168.7,2.9,179.3,11.5,183.2,23.4"/>
<path d="M177,54c-1.4,3.5-4,8.2-8.8,11.7c-9.6,7-24.2,6.3-36.9-1.7l12.7,12.7c2,2,4.4,3.7,7.1,4.8c4.3,1.8,10.7,3.6,18,2.1
	c12.9-2.7,23.2-14.5,25.5-29.6"/>
<path d="M1,65.8c1.9,0.4,3.8,0.7,5.8,0.7c14.2,0,25.7-11.5,25.7-25.7v-6L49.8,53c0.4,1.8,0.7,3.8,0.7,5.7
	c0,14.2-11.5,25.7-25.7,25.7c-2.4,0-4.7-0.3-6.9-1L1,65.8z"/>
<path d="M50.5,21.6c-1.9-0.4-3.8-0.7-5.8-0.7C30.5,21,19,32.5,19,46.7v6L1.6,34.4C1.2,32.6,1,30.6,1,28.7C1,14.5,12.5,3,26.7,3
	c2.4,0,4.7,0.3,6.9,1L50.5,21.6z"/>
<path d="M61.5,36.3c0,18.8,0,13.6,0,32.4l13.9,12c0-12.7,0-17.3,0-30L61.5,36.3z"/>
<polygon points="116.7,57.7 116.7,85.5 61.5,28.7 61.5,1 "/>
<path d="M103.8,1c0,18.5,0,16.9,0,35.3l13.6,14.4c0-12.5,0-22.3,0-34.8L103.8,1z"/>
</svg>
